# xmcd
# 
# Track frame offsets:
#     183
#     22775
#     53575
#     69703
#     84178
#     98375
#     112318
#     121763
#     136875
#     154125
#     164920
#     180803
#     195218
#     216150
#     228325
#     245095
# 
# Disc length: 3484
# 
# Revision: 2
# Processed by: cddbd v1.5.2PL0 Copyright (c) Steve Scherf et al.
# Submitted via: BonkEnc v1.0.5
# 
DISCID=c70d9a10
DTITLE=Lex Vandyke - Still got the blues vol. 1
DYEAR=0
DGENRE=
TTITLE0=Still got the blues
TTITLE1=Tunnel of love
TTITLE2=I shot the Sheriff
TTITLE3=Samba pa ti
TTITLE4=Smoking gun
TTITLE5=Oh Well
TTITLE6=How can we hang on to a dream
TTITLE7=White room
TTITLE8=Water of love
TTITLE9=Confidence man
TTITLE10=Knocking on heaven s door
TTITLE11=Sunshine of your love
TTITLE12=The healer
TTITLE13=Jin-go-lo-ba
TTITLE14=Lay down Sally
TTITLE15=I need your love so bad
EXTD=
EXTT0=
EXTT1=
EXTT2=
EXTT3=
EXTT4=
EXTT5=
EXTT6=
EXTT7=
EXTT8=
EXTT9=
EXTT10=
EXTT11=
EXTT12=
EXTT13=
EXTT14=
EXTT15=
PLAYORDER=
